PathFileType	4	(X/Y/Z)	Run_500 04
DataRate	CameraRate	NumFrames	NumMarkers	Units	OrigDataRate	OrigDataStartFrame	OrigNumFrames
100	100	4	41	mm	100	277	125
Frame#	Time	RASI			RPSI			RTH1			RTH2			RTH3			LTH1			LTH2			LTH3			RTB1			RTB2			RTB3			LTB1			LTB2			LTB3			RCAL			RTOE			RMT5			LCAL			LTOE			LACR			RACR			CLAV			C7			RUA1			RUA2			RUA3			RLEL			RMEL			LUA1			LUA2			LUA3			LLEL			LMEL			RFAsuperior			RFAradius			RFAulna			LFAsuperior			LFAradius			LFAulna			LPSI			LASI		
		X1	Y1	Z1	X2	Y2	Z2	X3	Y3	Z3	X4	Y4	Z4	X5	Y5	Z5	X6	Y6	Z6	X7	Y7	Z7	X8	Y8	Z8	X9	Y9	Z9	X10	Y10	Z10	X11	Y11	Z11	X12	Y12	Z12	X13	Y13	Z13	X14	Y14	Z14	X15	Y15	Z15	X16	Y16	Z16	X17	Y17	Z17	X18	Y18	Z18	X19	Y19	Z19	X20	Y20	Z20	X21	Y21	Z21	X22	Y22	Z22	X23	Y23	Z23	X24	Y24	Z24	X25	Y25	Z25	X26	Y26	Z26	X27	Y27	Z27	X28	Y28	Z28	X29	Y29	Z29	X30	Y30	Z30	X31	Y31	Z31	X32	Y32	Z32	X33	Y33	Z33	X34	Y34	Z34	X35	Y35	Z35	X36	Y36	Z36	X37	Y37	Z37	X38	Y38	Z38	X39	Y39	Z39	X40	Y40	Z40	X41	Y41	Z41	

277	  2.770000	1180.901823	1012.306958	-318.681808	1020.745260	1061.397357	-413.919369	1164.340536	847.795602	-259.518891	1232.671190	764.905250	-271.359893	1218.937520	620.576394	-302.115949	1097.127301	845.610856	-625.651746	1093.236777	704.288072	-590.310086	978.880221	625.552632	-586.910564	1372.304080	405.413973	-387.867144	1361.744213	289.216779	-358.085754	1411.512546	238.746555	-425.636064	767.356574	463.580657	-510.885004	705.870871	496.140830	-556.228169	626.621700	478.230607	-502.430259	1347.502197	 87.366865	-444.609291	1552.618955	206.959552	-444.943935	1568.573413	167.385577	-375.492717	520.175718	593.935244	-512.690388	448.040860	378.587823	-441.274570	1247.990675	1536.273645	-581.978492	1183.514812	1505.801121	-249.930535	1252.543363	1454.882851	-373.456273	1155.315626	1553.937681	-427.989776	1059.232574	1438.698417	-194.401306	1006.239508	1467.703514	-231.690268	969.655769	1407.873493	-205.763427	895.205019	1362.423327	-210.370260	897.996774	1370.186914	-305.940124	1239.550707	1443.107139	-684.659072	1151.908197	1407.195770	-690.018879	1194.901142	1341.445443	-727.946937	1179.486868	1273.046869	-753.912172	1121.634907	1257.351757	-683.269219	966.239981	1313.117764	-201.190806	1109.854498	1220.707928	-235.602773	1061.586746	1170.287183	-222.651112	1251.882387	1250.127263	-706.753463	1351.294139	1258.677327	-558.242322	1359.365486	1189.873221	-577.547319	1037.547539	1059.414298	-507.966754	1208.277316	990.114856	-569.026006	
278	  2.780000	1180.673885	1006.548681	-319.249910	1020.230559	1055.123347	-413.071484	1160.880661	837.022613	-259.137202	1228.156992	754.310635	-266.472420	1216.623121	612.738343	-306.055318	1099.487623	839.846591	-626.186837	1100.860174	698.118350	-592.840259	988.607373	616.059320	-589.367189	1361.394482	393.177141	-389.734152	1346.430218	276.902642	-360.516139	1394.557043	224.833507	-427.746448	780.801662	463.429162	-515.081099	722.000411	502.535482	-558.855871	641.912224	489.230333	-505.337032	1323.713396	 81.935842	-448.634067	1534.540997	185.530386	-444.320880	1546.468056	144.460637	-374.327238	544.337770	613.902282	-508.832918	457.321679	400.157884	-449.972412	1247.967360	1529.574808	-581.196936	1185.271635	1497.170200	-248.985911	1252.921993	1447.077767	-374.211841	1155.785644	1546.789361	-426.849938	1063.181668	1425.671044	-191.660860	1007.920854	1452.037048	-227.128861	974.456088	1390.696561	-200.678650	902.452852	1341.622353	-203.548881	902.625290	1349.333836	-298.814078	1232.366322	1436.889774	-683.422584	1144.331260	1402.057348	-688.273225	1185.333491	1335.465616	-728.315021	1167.965959	1267.643921	-754.186804	1108.778525	1252.086440	-684.592633	975.157285	1294.094272	-195.905779	1120.172702	1205.732503	-234.106821	1073.582209	1153.985118	-219.545467	1240.370222	1238.291630	-710.584088	1345.268522	1234.569007	-565.057623	1347.568431	1165.979260	-586.637017	1036.597021	1053.336286	-507.152519	1207.562553	984.870336	-567.839356	
279	  2.790000	1180.259696	998.861907	-319.187144	1019.712608	1048.056964	-412.389443	1157.889495	827.154431	-259.382704	1224.210505	747.235280	-264.239853	1215.018747	605.137861	-309.953380	1101.829879	832.682132	-626.501712	1110.546708	690.530114	-595.315083	999.717502	605.639559	-592.402907	1349.480226	379.584328	-391.251719	1327.405514	263.561897	-363.716738	1373.709808	209.396287	-430.496321	796.242652	461.684562	-519.607309	740.328466	506.456726	-561.567827	659.996202	497.474564	-508.395491	1292.714578	 81.227905	-453.339604	1511.411090	157.124546	-443.686627	1517.836212	115.712589	-372.851218	570.249992	629.570961	-505.007297	472.088260	417.489844	-458.824437	1248.097587	1521.869210	-580.033382	1186.694791	1487.352121	-247.836797	1253.158635	1438.125086	-375.148661	1156.217143	1538.470511	-425.653694	1067.303634	1410.705187	-188.718966	1009.651299	1434.275361	-222.021085	979.715883	1371.437329	-195.196629	910.317435	1319.142235	-196.077367	907.662468	1326.415038	-290.685569	1224.699805	1429.392394	-682.136806	1136.234891	1395.680083	-686.338131	1174.811979	1327.957430	-727.841230	1155.400448	1261.132546	-754.036224	1095.086100	1245.801135	-685.285844	984.614958	1273.282181	-189.814951	1131.094611	1189.475395	-232.142932	1086.339773	1136.198021	-216.684499	1227.531221	1225.379759	-714.161646	1336.987469	1208.643806	-572.513221	1334.020438	1140.905698	-596.732425	1035.252088	1046.765872	-506.314266	1206.747763	979.210296	-567.025802	
280	  2.800000	1178.966145	989.821830	-318.622774	1018.786682	1040.754001	-411.691750	1154.893381	819.921620	-259.635075	1220.496231	743.239690	-265.547492	1212.753344	598.606852	-311.595195	1103.837576	824.530573	-626.476292	1120.816223	682.163479	-597.970548	1012.373352	594.201206	-596.216639	1337.618780	367.278110	-392.101403	1306.169177	252.264255	-367.313331	1349.712175	195.899389	-434.146131	813.813915	458.438501	-523.916708	760.681922	507.709682	-564.236861	680.575082	502.812976	-511.240760	1256.223549	 84.759616	-458.273818	1482.890114	126.794312	-444.928126	1483.390780	 87.119567	-372.935031	597.384625	641.053729	-502.129176	491.765436	430.510610	-467.030838	1248.556895	1513.497582	-578.487125	1188.076653	1476.512176	-246.412449	1253.506467	1428.323106	-376.047136	1156.778070	1529.087721	-424.293111	1071.654977	1393.807565	-185.434455	1011.511165	1414.438734	-216.305723	985.787837	1349.908210	-189.555392	918.995383	1295.282441	-188.005128	913.533636	1302.063804	-281.980246	1216.456663	1420.792987	-680.826048	1127.587524	1388.227566	-684.337509	1163.380348	1318.885967	-726.318279	1141.876675	1253.785400	-753.333437	1081.426274	1238.914595	-684.563114	994.660135	1250.790266	-183.094130	1142.694492	1172.136850	-230.053551	1099.909850	1117.264011	-214.345185	1213.200150	1211.521051	-717.360860	1326.436374	1181.617122	-580.771275	1318.540552	1115.147657	-607.746473	1032.905026	1039.750621	-505.652623	1205.646198	973.050703	-566.793031	
